<?xml version="1.0" encoding="UTF-8" standalone="no"?>
<!-- Created with Inkscape (http://www.inkscape.org/) -->
<svg id="svg2" xmlns:rdf="http://www.w3.org/1999/02/22-rdf-syntax-ns#" xmlns="http://www.w3.org/2000/svg" height="48" width="192" version="1.1" xmlns:cc="http://creativecommons.org/ns#" xmlns:dc="http://purl.org/dc/elements/1.1/">
 <defs id="defs4"></defs>
 <metadata id="metadata7">
  <rdf:RDF>
   <cc:Work rdf:about="">
    <dc:format>image/svg+xml</dc:format>
    <dc:type rdf:resource="http://purl.org/dc/dcmitype/StillImage"/>
    <dc:title/>
   </cc:Work>
  </rdf:RDF>
 </metadata>
 <g id="layer1" transform="translate(0,-1004.3622)">
  <path id="path2987" stroke-linejoin="miter" d="m92,24a20,20,0,1,1,-40,0,20,20,0,1,1,40,0z" fill-rule="nonzero" transform="matrix(1.0510315,0,0,1.0510315,-3.6742677,1003.1374)" stroke-dashoffset="0" stroke="#000" stroke-linecap="square" stroke-miterlimit="4" stroke-dasharray="none" stroke-width="1.86363637" fill="#eaeaea"/>
  <path id="path3757" stroke-linejoin="miter" d="M84,12,60,36" stroke-linecap="butt" stroke="#000" transform="translate(0,1004.3622)" stroke-miterlimit="4" stroke-dasharray="none" stroke-width="2" fill="none"/>
  <path id="path3761" stroke-linejoin="miter" d="M60,12,84,36" stroke-linecap="butt" stroke="#000" transform="translate(0,1004.3622)" stroke-miterlimit="4" stroke-dasharray="none" stroke-width="2" fill="none"/>
  <path id="path2987-4" stroke-linejoin="miter" d="m92,24a20,20,0,1,1,-40,0,20,20,0,1,1,40,0z" fill-rule="nonzero" transform="matrix(1.0510315,0,0,1.0510315,44.325732,1003.1374)" stroke-dashoffset="0" stroke="#000" stroke-linecap="square" stroke-miterlimit="4" stroke-dasharray="none" stroke-width="1.86363637000000000" fill="#47c644"/>
  <path id="path3757-0" stroke-linejoin="miter" d="m132,1016.4-24,24" stroke="#000" stroke-linecap="butt" stroke-miterlimit="4" stroke-dasharray="none" stroke-width="2" fill="none"/>
  <path id="path3761-9" stroke-linejoin="miter" d="m108,1016.4,24,24" stroke="#000" stroke-linecap="butt" stroke-miterlimit="4" stroke-dasharray="none" stroke-width="2" fill="none"/>
  <path id="path2987-8" stroke-linejoin="miter" d="m92,24a20,20,0,1,1,-40,0,20,20,0,1,1,40,0z" fill-rule="nonzero" transform="matrix(1.0510315,0,0,1.0510315,92.325732,1003.1374)" stroke-dashoffset="0" stroke="#000" stroke-linecap="square" stroke-miterlimit="4" stroke-dasharray="none" stroke-width="1.86363637000000000" fill="#d12e2e"/>
  <path id="path3757-2" stroke-linejoin="miter" d="m180.26,1016.5-24,24" stroke="#000" stroke-linecap="butt" stroke-miterlimit="4" stroke-dasharray="none" stroke-width="2" fill="none"/>
  <path id="path3761-4" stroke-linejoin="miter" d="m156.26,1016.5,24,24" stroke="#000" stroke-linecap="butt" stroke-miterlimit="4" stroke-dasharray="none" stroke-width="2" fill="none"/>
  <path id="path9766" fill="#47c644" d="m33.63,1030.7c0,6.9667-5.7,12.667-12.667,12.667-6.9667,0-12.667-5.7-12.667-12.667,0-6.9666,5.7-12.667,12.667-12.667l3.8,0.043-1.9,1.9,4.4333,4.4332,9.5-9.5-9.5-9.5-4.4333,4.4334,1.5833,1.9h-3.1667c-10.45,0-19,8.55-19,19s8.55,19,19,19,19-8.55,19-19h-6.3333z"/>
 </g>
</svg>
